<svg xmlns="http://www.w3.org/2000/svg" aria-hidden="true" role="img" width="240" height="50" viewBox="0 0 390.15384615384613 69" class="css-1j8o68f"><defs id="SvgjsDefs3588"></defs><g id="SvgjsG3589" featurekey="symbolContainer" transform="matrix(1,0,0,1,0,0)" fill="#111111"><rect width="74" height="69" rx="5"></rect></g><g id="SvgjsG3590" featurekey="symbolFeature-0" transform="matrix(1.6822414964392374,0,0,1.6822414964392374,10.00060221805737,8.000891395026645)" fill="#f6f6f6"><g xmlns="http://www.w3.org/2000/svg"><path fill-rule="evenodd" clip-rule="evenodd" fill="#f6f6f6" d="M21.951,1.15c-8.202-3.284-17.515,0.702-20.8,8.905   c-3.286,8.204,0.702,17.518,8.905,20.802c8.203,3.285,17.516-0.702,20.801-8.905C34.143,13.748,30.154,4.436,21.951,1.15z    M10.8,29.001C3.634,26.131,0.138,17.967,3.007,10.8c2.87-7.166,11.035-10.663,18.202-7.792c7.166,2.869,10.662,11.034,7.793,18.2   C26.131,28.375,17.967,31.87,10.8,29.001z"></path><path fill-rule="evenodd" clip-rule="evenodd" fill="#f6f6f6" d="M16.749,14.147c-1.025-0.411-2.19,0.088-2.601,1.113   s0.088,2.189,1.112,2.6c1.025,0.411,2.191-0.088,2.601-1.112C18.271,15.723,17.773,14.559,16.749,14.147z M15.632,16.933   c-0.512-0.206-0.761-0.788-0.557-1.301c0.206-0.512,0.789-0.761,1.301-0.557c0.511,0.205,0.76,0.788,0.556,1.301   C16.727,16.888,16.144,17.137,15.632,16.933z"></path><path fill-rule="evenodd" clip-rule="evenodd" fill="#f6f6f6" d="M18.234,10.435c-3.076-1.232-6.568,0.264-7.8,3.339   c-1.232,3.076,0.264,6.568,3.339,7.8c3.076,1.232,6.568-0.263,7.8-3.339S21.311,11.666,18.234,10.435z M14.518,19.717   c-2.048-0.819-3.046-3.153-2.227-5.2c0.82-2.047,3.152-3.046,5.199-2.227c2.049,0.82,3.047,3.154,2.229,5.201   C18.898,19.538,16.565,20.538,14.518,19.717z"></path><path fill-rule="evenodd" clip-rule="evenodd" fill="#f6f6f6" d="M23.432,18.978c0.102-0.256-0.023-0.547-0.279-0.649   c-0.256-0.104-0.547,0.021-0.65,0.278v-0.001c-0.719,1.796-2.098,3.129-3.744,3.834c-0.252,0.108-0.371,0.402-0.262,0.655   c0.109,0.255,0.402,0.372,0.656,0.264c0.01-0.004,0.014-0.012,0.021-0.015c1.873-0.81,3.439-2.327,4.256-4.366H23.432z"></path><path fill-rule="evenodd" clip-rule="evenodd" fill="#f6f6f6" d="M26.865,19.814c-0.256-0.103-0.547,0.022-0.65,0.278   c-1.129,2.82-3.295,4.915-5.883,6.023c-0.252,0.108-0.371,0.402-0.262,0.656c0.109,0.255,0.402,0.371,0.656,0.263   c0.012-0.006,0.021-0.017,0.033-0.022c2.809-1.213,5.16-3.49,6.385-6.548C27.246,20.208,27.121,19.917,26.865,19.814z"></path><path fill-rule="evenodd" clip-rule="evenodd" fill="#f6f6f6" d="M25.008,19.071c-0.256-0.103-0.547,0.021-0.65,0.278   c-0.922,2.308-2.693,4.021-4.812,4.928h0.002c-0.254,0.109-0.373,0.403-0.264,0.657s0.402,0.371,0.656,0.263   c0.01-0.005,0.016-0.014,0.027-0.02c2.34-1.011,4.299-2.907,5.32-5.456C25.389,19.465,25.264,19.174,25.008,19.071z"></path><path fill-rule="evenodd" clip-rule="evenodd" fill="#f6f6f6" d="M13.513,8.912c-0.109-0.255-0.403-0.371-0.657-0.262   c-0.009,0.003-0.014,0.011-0.021,0.014c-1.873,0.81-3.44,2.328-4.256,4.366H8.578C8.475,13.287,8.6,13.577,8.856,13.68   c0.257,0.103,0.548-0.022,0.65-0.278h0.001c0.718-1.794,2.097-3.128,3.743-3.832C13.504,9.46,13.622,9.167,13.513,8.912z"></path><path fill-rule="evenodd" clip-rule="evenodd" fill="#f6f6f6" d="M11.938,5.235c-0.109-0.254-0.403-0.371-0.657-0.263   c-0.012,0.005-0.021,0.016-0.031,0.021c-2.81,1.214-5.16,3.49-6.385,6.548c-0.104,0.258,0.021,0.549,0.278,0.651   c0.256,0.103,0.547-0.021,0.65-0.278C6.923,9.095,9.088,7,11.676,5.892C11.929,5.782,12.047,5.489,11.938,5.235z"></path><path fill-rule="evenodd" clip-rule="evenodd" fill="#f6f6f6" d="M12.463,7.729c0.253-0.108,0.372-0.401,0.263-0.656   c-0.109-0.253-0.403-0.371-0.657-0.262c-0.01,0.004-0.016,0.014-0.026,0.018c-2.341,1.012-4.3,2.91-5.32,5.458   C6.619,12.544,6.745,12.834,7,12.938c0.256,0.102,0.547-0.021,0.65-0.278c0.923-2.308,2.695-4.022,4.812-4.928V7.729z"></path></g></g><g id="SvgjsG3591" featurekey="nameFeature-0" transform="matrix(1.3503644628834333,0,0,1.3503644628834333,94,0.28446029722076815)" fill="#111111"><path d="M0 12.043 l0.91996 0 l10.057 27.956 l-0.91629 0 z M1.3394 12.043 l0.91996 0 l10.057 27.956 l-0.91629 0 z M2.6789 12.043 l0.91996 0 l10.057 27.956 l-0.91629 0 z M4.0184 12.043 l0.91996 0 l10.057 27.956 l-0.91629 0 z M25.534 12.043 l0.91996 -0.000078124 l-10.057 27.956 l-0.97883 0 l-10.061 -27.956 l0.91996 0 l6.9512 19.319 l6.9476 -19.319 l0.91996 0 l-7.4112 20.592 l0.21344 0.58512 l7.6172 -21.178 l0.91996 0 l-8.0808 22.454 l0.20976 0.58512 l8.2908 -23.04 l0.91996 0 l-8.7508 24.316 l0.21344 0.58512 l8.9568 -24.902 l0.91996 0 l-9.3984 26.12 l-0.047852 -0.014726 l0.23918 0.65872 z M28.3448 39.9987891 l-0.86476 0 l0 -27.956 l0.86476 0 l0 27.956 z M29.680600000000002 39.9987891 l-0.86476 0 l0 -27.956 l0.86476 0 l0 27.956 z M31.0128 39.9987891 l-0.86476 0 l0 -27.956 l0.86476 0 l0 27.956 z M32.3484 39.9987891 l-0.86476 0 l0 -27.956 l0.86476 0 l0 27.956 z M33.6804 39.9987891 l-0.86476 0 l0 -27.956 l0.86476 0 l0 27.956 z M36.5848 39.9987891 l-0.86476 0 l0 -27.915 l0.86476 0 l0 27.915 z M37.9206 39.9987891 l-0.86476 0 l0 -27.915 l0.86476 0 l0 27.915 z M39.2528 39.9987891 l-0.86476 0 l0 -27.915 l0.86476 0 l0 27.915 z M40.5884 39.9987891 l-0.86476 0 l0 -27.915 l0.86476 0 l0 27.915 z M58.528 12.082999999999998 l0.8648 -0.000039062 l0 27.915 l-1.0671 0 l-16.405 -26.414 l0 0.76543 l0.0073436 -0.0036719 l15.93 25.652 l-1.0156 0 l-14.922 -24.026 l0 0.7507 l14.454 23.275 l-1.0156 0 l-13.439 -21.638 l0 0.7507 l12.972 20.887 l-1.0193 0 l-11.952 -19.249 l0 0.7507 l11.488 18.499 l-1.0193 0 l-10.469 -16.861 l0 16.861 l-0.86476 0 l0 -18.252 l-0.0073436 -0.014726 l0.0073436 -0.0036719 l0 -9.6449 l0.94942 0 l11.187 18.013 l0 -18.013 l0.86476 0 l0 19.404 l0.471 0.75436 l0 -20.158 l0.86109 0 l0 21.553 l0.471 0.75436 l0 -22.307 l0.86476 0 l0 23.698 l0.46736 0.75804 l0 -24.456 l0.86476 0 l0 25.847 l0.471 0.75436 l0 -26.602 z M60.4 12.043 l1.0009 0 l8.8576 15.19 l0 12.765 l-0.86476 0 l0 -12.53 z M61.9456 12.043 l0.99723 0 l8.8576 15.19 l0 12.765 l-0.86476 0 l0 -12.53 z M64.4884 12.043 l8.8536 15.187 l0.12512 12.769 l-0.86476 0 l-0.12144 -12.53 l-8.9936 -15.426 l1.0009 0 z M66.03399999999999 12.043 l8.8536 15.19 l0.066252 12.766 l-0.86109 0 l-0.066252 -12.53 l-8.9936 -15.426 l1.0009 0 z M84.408 12.043 l1.0009 -0.000039062 l-8.9752 15.426 l0 12.53 l-0.86476 0 l0 -12.53 l-8.99 -15.426 l0.99723 0 l5.3248 9.1336 l5.332 -9.1336 l0.99723 0 l-5.814 9.9652 l-0.04414 -0.025742 l0.30176 0.5152 l6.1012 -10.454 l1.0009 0 l-6.6016 11.312 l0.26863 0.46736 l6.8776 -11.779 l1.0009 0 l-7.378 12.637 l0.2723 0.46736 l7.6504 -13.104 l1.0009 0 l-8.1508 13.962 l0.28703 0.48576 z M87.30839999999999 39.9987891 l-0.86476 0 l0 -27.956 l0.86476 0 l0 27.956 z M88.64059999999999 39.9987891 l-0.86476 0 l0 -27.956 l0.86476 0 l0 27.956 z M89.97279999999999 39.9987891 l-0.86476 0 l0 -27.956 l0.86476 0 l0 27.956 z M91.30839999999999 39.9987891 l-0.86476 0 l0 -27.956 l0.86476 0 l0 27.956 z M103.596 34.6556 l-10.955 0.000039062 l0 0.47102 l10.955 0 l0 0.86109 l-10.955 0 l0 0.47102 l10.955 0 l0 0.86476 l-10.955 0 l0 0.46734 l10.955 0 l0 0.86476 l-10.955 0 l0 0.47102 l10.955 0 l0 0.86476 l-10.955 0 l0 0.0073438 l-0.86476 0 l0 -27.956 l0.86476 0 l0 21.748 l10.955 0 l0 0.86476 z M114.88 12.043 l0.91996 0 l10.057 27.956 l-0.91629 0 z M116.2194 12.043 l0.91996 0 l10.057 27.956 l-0.91629 0 z M117.5589 12.043 l0.91996 0 l10.057 27.956 l-0.91629 0 z M118.8984 12.043 l0.91996 0 l10.057 27.956 l-0.91629 0 z M140.414 12.043 l0.91996 -0.000078124 l-10.057 27.956 l-0.97883 0 l-10.061 -27.956 l0.91996 0 l6.9512 19.319 l6.9476 -19.319 l0.91996 0 l-7.4112 20.592 l0.21344 0.58512 l7.6172 -21.178 l0.91996 0 l-8.0808 22.454 l0.20976 0.58512 l8.2908 -23.04 l0.91996 0 l-8.7508 24.316 l0.21344 0.58512 l8.9568 -24.902 l0.91996 0 l-9.3984 26.12 l-0.047852 -0.014726 l0.23918 0.65872 z M146.822 12.032 l0.93836 0 l-11.662 27.967 l-0.93836 0 z M148.15699999999998 12.032 l0.93836 0 l-11.662 27.967 l-0.93469 0 z M149.49699999999999 12.032 l0.93469 0 l-11.662 27.967 l-0.93469 0 z M150.832 12.032 l0.93836 0 l-11.665 27.967 l-0.93469 0 z M163.878 39.9987891 l-11.143 -27.08 l-0.23918 0.57772 l10.904 26.502 l-0.93469 0 l-10.44 -25.376 l-0.23918 0.57772 l10.204 24.802 l-0.93469 0 l-9.7404 -23.672 l-0.23918 0.57408 l9.5012 23.098 l-0.93469 0 l-9.0376 -21.969 l-0.23918 0.57408 l8.8024 21.391 l-0.93469 0 l-2.0975 -5.1076 l-12.556 0 l-2.1306 5.1076 l-0.93836 0 l11.662 -27.967 l1.1334 0 l11.507 27.967 l-0.93469 0 z M155.774 34.0264 l-0.18402 -0.44896 l-11.466 0 l-0.18766 0.44896 l11.838 0 z M155.234 32.7128 l-0.1877 -0.44896 l-10.377 0 l-0.18766 0.44896 l10.753 0 z M154.692 31.3988 l-0.1877 -0.44896 l-9.288 0 l-0.18766 0.44896 l9.6633 0 z M154.152 30.0852 l-0.18398 -0.44896 l-8.2024 0 l-0.18766 0.44896 l8.5741 0 z M153.611 28.772 l-3.7167 -9.034 l-3.7682 9.034 l7.4848 0 z M184.499 11.638000000000002 l0.86484 0 l0 17.902 c0 5.77 -4.692 10.462 -10.462 10.462 s-10.462 -4.692 -10.462 -10.462 l0 -17.902 l0.86476 0 l0 17.902 c0 5.2916 4.3056 9.5972 9.5972 9.5972 s9.5972 -4.3056 9.5972 -9.5972 l0 -17.902 z M174.902 38.7034 c-5.0524 0 -9.1664 -4.1104 -9.1664 -9.1628 l0 -17.902 l0.86476 0 l0 17.902 c0 4.5776 3.7204 8.3016 8.298 8.3016 s8.3016 -3.724 8.3016 -8.3016 l0 -17.902 l0.86476 0 l0 17.902 c0 5.0524 -4.1104 9.1628 -9.1628 9.1628 z M174.902 37.4081 c-4.3384 0 -7.8676 -3.5326 -7.8676 -7.8676 l0 -17.902 l0.86476 0 l0 17.902 c0 3.8602 3.1426 7.0028 7.0028 7.0028 s7.0028 -3.1426 7.0028 -7.0028 l0 -17.902 l0.86476 0 l0 17.902 c0 4.3384 -3.529 7.8676 -7.8676 7.8676 z M174.902 36.1091 c-3.6246 0 -6.5724 -2.9476 -6.5724 -6.5684 l0 -17.902 l0.86476 0 l0 17.902 c0 3.1463 2.5612 5.7076 5.7076 5.7076 s5.7076 -2.5612 5.7076 -5.7076 l0 -17.902 l0.86476 0 l0 17.899 c0 3.6246 -2.9476 6.5724 -6.5724 6.5724 z M174.902 34.814 c-2.9108 0 -5.2768 -2.3662 -5.2768 -5.2732 l0 -17.902 l0.86476 0 l0 17.902 c0 2.4324 1.9798 4.412 4.412 4.412 s4.412 -1.9798 4.412 -4.412 l0 -17.902 l0.86476 0 l0 17.899 c0 2.9108 -2.3661 5.2768 -5.2768 5.2768 z M188.2684 39.9987891 l-0.86476 0 l0 -27.956 l0.86476 0 l0 27.956 z M189.60060000000001 39.9987891 l-0.86476 0 l0 -27.956 l0.86476 0 l0 27.956 z M190.93280000000001 39.9987891 l-0.86476 0 l0 -27.956 l0.86476 0 l0 27.956 z M192.2684 39.9987891 l-0.86476 0 l0 -27.956 l0.86476 0 l0 27.956 z M204.556 34.6556 l-10.955 0.000039062 l0 0.47102 l10.955 0 l0 0.86109 l-10.955 0 l0 0.47102 l10.955 0 l0 0.86476 l-10.955 0 l0 0.46734 l10.955 0 l0 0.86476 l-10.955 0 l0 0.47102 l10.955 0 l0 0.86476 l-10.955 0 l0 0.0073438 l-0.86476 0 l0 -27.956 l0.86476 0 l0 21.748 l10.955 0 l0 0.86476 z M219.31 13.04 l-17.351 0 l0 -0.86476 l17.351 0 l0 0.86476 z M219.31 14.376000000000001 l-17.351 0 l0 -0.86476 l17.351 0 l0 0.86476 z M219.31 15.707999999999998 l-17.351 0 l0 -0.86476 l17.351 0 l0 0.86476 z M219.31 17.044 l-17.351 0 l0 -0.86476 l17.351 0 l0 0.86476 z M201.96 18.376 l0 -0.86476 l17.354 0 l0 0.86476 l-5.5787 0 l0 21.623 l-0.86109 0 l0 -21.623 l-0.47102 0 l0 21.623 l-0.86476 0 l0 -21.623 l-0.46734 0 l0 21.623 l-0.86476 0 l0 -21.623 l-0.47102 0 l0 21.623 l-0.86476 0 l0 -21.623 l-0.46734 0 l0 21.623 l-0.86476 0 l0 -21.623 l-5.5787 0 z"></path></g></svg>